<?xml version="1.0" encoding="UTF-8"?>
<svg id="Layer_2" data-name="Layer 2" xmlns="http://www.w3.org/2000/svg" xmlns:xlink="http://www.w3.org/1999/xlink" viewBox="0 0 7000 4081">
  <defs>
    <style>
      .cls-1 {
        fill: url(#linear-gradient-2);
      }

      .cls-2 {
        fill: url(#linear-gradient-6);
      }

      .cls-3 {
        clip-path: url(#clippath-2);
      }

      .cls-4 {
        clip-path: url(#clippath-6);
      }

      .cls-5 {
        clip-path: url(#clippath-7);
      }

      .cls-6 {
        clip-path: url(#clippath-1);
      }

      .cls-7 {
        clip-path: url(#clippath-4);
      }

      .cls-8 {
        fill: url(#linear-gradient-10);
      }

      .cls-9 {
        fill: url(#linear-gradient-5);
      }

      .cls-10 {
        clip-path: url(#clippath-9);
      }

      .cls-11 {
        clip-path: url(#clippath);
      }

      .cls-12 {
        clip-rule: evenodd;
        fill: none;
      }

      .cls-13 {
        clip-path: url(#clippath-3);
      }

      .cls-14 {
        fill: url(#linear-gradient-7);
      }

      .cls-15 {
        clip-path: url(#clippath-8);
      }

      .cls-16 {
        fill: url(#linear-gradient-9);
      }

      .cls-17 {
        fill: url(#linear-gradient-3);
      }

      .cls-18 {
        clip-path: url(#clippath-5);
      }

      .cls-19 {
        fill: url(#linear-gradient);
      }

      .cls-20 {
        fill: url(#linear-gradient-4);
      }

      .cls-21 {
        fill: url(#linear-gradient-8);
      }
    </style>
    <clipPath id="clippath">
      <path class="cls-12" d="m2911.71,4081c825.17-909.16,512.21-761.86,1811.52-1214.59,618.35-215.46,1121.73-496.84,1121.73-1070.35,0-1083.07-1166.25-1017.69-1448.85-1796.06h2293.63v4081h-3778.03Z"/>
    </clipPath>
    <linearGradient id="linear-gradient" x1="6051.11" y1="2661.12" x2="2019.48" y2="660.06" gradientUnits="userSpaceOnUse">
      <stop offset="0" stop-color="#000"/>
      <stop offset="1" stop-color="#ffcf4b"/>
    </linearGradient>
    <clipPath id="clippath-1">
      <path class="cls-12" d="m6689.73,0h-1863.26c282.6,778.37,1448.85,712.99,1448.85,1796.06,0,1406.44-2216.77,1055.87-2542.91,2284.94h2957.33V0Z"/>
    </clipPath>
    <linearGradient id="linear-gradient-2" x1="7215.11" y1="2756.98" x2="3864" y2="1558.9" xlink:href="#linear-gradient"/>
    <clipPath id="clippath-2">
      <path class="cls-12" d="m7000,0h-1863.26c282.6,778.37,1448.85,712.99,1448.85,1796.06,0,1406.44-1905.4,1055.87-2231.54,2284.94h2645.95V0Z"/>
    </clipPath>
    <linearGradient id="linear-gradient-3" x1="7092.22" y1="2481.92" x2="4415.76" y2="1647.1" gradientUnits="userSpaceOnUse">
      <stop offset="0" stop-color="#d87400"/>
      <stop offset="1" stop-color="#ffcf4b"/>
    </linearGradient>
    <clipPath id="clippath-3">
      <path class="cls-12" d="m7000,0h-1663.09c282.6,778.37,1448.85,712.99,1448.85,1796.06,0,1406.44-1274.86,1055.87-1601,2284.94h1815.24V0Z"/>
    </clipPath>
    <linearGradient id="linear-gradient-4" x1="7662.14" y1="2051.11" x2="5695.04" y2="2037.81" xlink:href="#linear-gradient-3"/>
    <clipPath id="clippath-4">
      <path class="cls-12" d="m7000,0h-1542.99c282.6,778.37,1448.84,712.99,1448.84,1796.06,0,1406.44-734.4,1055.87-1060.54,2284.94h1154.68V0Z"/>
    </clipPath>
    <linearGradient id="linear-gradient-5" x1="9152.62" y1="3549.03" x2="6995.15" y2="2436.01" xlink:href="#linear-gradient-3"/>
    <clipPath id="clippath-5">
      <path class="cls-12" d="m4088.29,0c-825.17,909.16-512.21,761.86-1811.52,1214.59-618.35,215.46-1121.72,496.84-1121.72,1070.35,0,1083.07,1166.24,1017.7,1448.85,1796.06H310.27V0h3778.03Z"/>
    </clipPath>
    <linearGradient id="linear-gradient-6" x1="948.87" y1="1419.88" x2="4980.54" y2="3420.94" xlink:href="#linear-gradient"/>
    <clipPath id="clippath-6">
      <path class="cls-12" d="m310.27,4081h1863.26c-282.6-778.37-1448.85-712.99-1448.85-1796.06C724.68,878.5,2941.45,1229.06,3267.59,0H310.27v4081Z"/>
    </clipPath>
    <linearGradient id="linear-gradient-7" x1="-215.13" y1="1324.04" x2="3135.98" y2="2522.08" xlink:href="#linear-gradient"/>
    <clipPath id="clippath-7">
      <path class="cls-12" d="m0,4081h1863.26c-282.6-778.37-1448.85-712.99-1448.85-1796.06C414.41,878.5,2319.81,1229.06,2645.95,0H0v4081Z"/>
    </clipPath>
    <linearGradient id="linear-gradient-8" x1="-92.24" y1="1599.08" x2="2584.23" y2="2433.9" xlink:href="#linear-gradient-3"/>
    <clipPath id="clippath-8">
      <path class="cls-12" d="m0,4081h1663.09c-282.6-778.37-1448.85-712.99-1448.85-1796.06C214.24,878.5,1489.1,1229.06,1815.24,0H0v4081Z"/>
    </clipPath>
    <linearGradient id="linear-gradient-9" x1="-662.15" y1="2029.89" x2="1304.95" y2="2043.18" xlink:href="#linear-gradient-3"/>
    <clipPath id="clippath-9">
      <path class="cls-12" d="m0,4081h1542.99C1260.38,3302.63,94.14,3368.01,94.14,2284.94,94.14,878.5,828.54,1229.06,1154.68,0H0v4081Z"/>
    </clipPath>
    <linearGradient id="linear-gradient-10" x1="-2152.63" y1="531.96" x2="4.83" y2="1644.98" xlink:href="#linear-gradient-3"/>
  </defs>
  <g id="Layer_1-2" data-name="Layer 1">
    <g>
      <g class="cls-11">
        <rect class="cls-19" x="2911.71" width="3778.03" height="4081"/>
      </g>
      <g class="cls-6">
        <rect class="cls-1" x="3732.41" width="2957.33" height="4081"/>
      </g>
      <g class="cls-3">
        <rect class="cls-17" x="4354.05" width="2645.95" height="4081"/>
      </g>
      <g class="cls-13">
        <rect class="cls-20" x="5184.76" width="1815.24" height="4081"/>
      </g>
      <g class="cls-7">
        <rect class="cls-9" x="5457.01" width="1542.99" height="4081"/>
      </g>
      <g class="cls-18">
        <rect class="cls-2" x="310.27" width="3778.03" height="4081"/>
      </g>
      <g class="cls-4">
        <rect class="cls-14" x="310.27" width="2957.33" height="4081"/>
      </g>
      <g class="cls-5">
        <rect class="cls-21" width="2645.95" height="4081"/>
      </g>
      <g class="cls-15">
        <rect class="cls-16" width="1815.24" height="4081"/>
      </g>
      <g class="cls-10">
        <rect class="cls-8" width="1542.99" height="4081"/>
      </g>
    </g>
  </g>
</svg>